<svg width="151" height="50" viewBox="0 0 151 50" fill="none" xmlns="http://www.w3.org/2000/svg">
<path d="M66.3457 20.3916L62.8652 31H60.0615L64.8164 18.2031H66.6006L66.3457 20.3916ZM69.2373 31L65.748 20.3916L65.4668 18.2031H67.2686L72.0498 31H69.2373ZM69.0791 26.2363V28.3018H62.3203V26.2363H69.0791ZM78.6943 28.9258V17.5H81.2432V31H78.9492L78.6943 28.9258ZM72.6826 26.3594V26.1748C72.6826 25.4482 72.7646 24.7891 72.9287 24.1973C73.0928 23.5996 73.333 23.0869 73.6494 22.6592C73.9658 22.2314 74.3555 21.9004 74.8184 21.666C75.2812 21.4316 75.8086 21.3145 76.4004 21.3145C76.957 21.3145 77.4434 21.4316 77.8594 21.666C78.2812 21.9004 78.6387 22.2344 78.9316 22.668C79.2305 23.0957 79.4707 23.6025 79.6523 24.1885C79.834 24.7686 79.9658 25.4043 80.0479 26.0957V26.5C79.9658 27.1621 79.834 27.7773 79.6523 28.3457C79.4707 28.9141 79.2305 29.4121 78.9316 29.8398C78.6387 30.2617 78.2812 30.5898 77.8594 30.8242C77.4375 31.0586 76.9453 31.1758 76.3828 31.1758C75.791 31.1758 75.2637 31.0557 74.8008 30.8154C74.3438 30.5752 73.957 30.2383 73.6406 29.8047C73.3301 29.3711 73.0928 28.8613 72.9287 28.2754C72.7646 27.6895 72.6826 27.0508 72.6826 26.3594ZM75.2139 26.1748V26.3594C75.2139 26.752 75.2432 27.1182 75.3018 27.458C75.3662 27.7979 75.4688 28.0996 75.6094 28.3633C75.7559 28.6211 75.9434 28.8232 76.1719 28.9697C76.4062 29.1104 76.6904 29.1807 77.0244 29.1807C77.458 29.1807 77.8154 29.084 78.0967 28.8906C78.3779 28.6914 78.5918 28.4189 78.7383 28.0732C78.8906 27.7275 78.9785 27.3291 79.002 26.8779V25.7266C78.9844 25.3574 78.9316 25.0264 78.8438 24.7334C78.7617 24.4346 78.6387 24.1797 78.4746 23.9688C78.3164 23.7578 78.1172 23.5938 77.877 23.4766C77.6426 23.3594 77.3643 23.3008 77.042 23.3008C76.7139 23.3008 76.4326 23.377 76.1982 23.5293C75.9639 23.6758 75.7734 23.8779 75.627 24.1357C75.4863 24.3936 75.3809 24.6982 75.3105 25.0498C75.2461 25.3955 75.2139 25.7705 75.2139 26.1748ZM85.8926 21.4902V31H83.3525V21.4902H85.8926ZM83.1943 19.0117C83.1943 18.6426 83.3232 18.3379 83.5811 18.0977C83.8389 17.8574 84.1846 17.7373 84.6182 17.7373C85.0459 17.7373 85.3887 17.8574 85.6465 18.0977C85.9102 18.3379 86.042 18.6426 86.042 19.0117C86.042 19.3809 85.9102 19.6855 85.6465 19.9258C85.3887 20.166 85.0459 20.2861 84.6182 20.2861C84.1846 20.2861 83.8389 20.166 83.5811 19.9258C83.3232 19.6855 83.1943 19.3809 83.1943 19.0117ZM90.6562 17.5V31H88.1162V17.5H90.6562ZM104.051 27.6514C104.051 27.4229 104.016 27.2178 103.945 27.0361C103.881 26.8486 103.758 26.6787 103.576 26.5264C103.395 26.3682 103.14 26.2129 102.812 26.0605C102.483 25.9082 102.059 25.75 101.537 25.5859C100.957 25.3984 100.406 25.1875 99.8848 24.9531C99.3691 24.7188 98.9121 24.4463 98.5137 24.1357C98.1211 23.8193 97.8105 23.4531 97.582 23.0371C97.3594 22.6211 97.248 22.1377 97.248 21.5869C97.248 21.0537 97.3652 20.5703 97.5996 20.1367C97.834 19.6973 98.1621 19.3223 98.584 19.0117C99.0059 18.6953 99.5039 18.4521 100.078 18.2822C100.658 18.1123 101.294 18.0273 101.985 18.0273C102.929 18.0273 103.752 18.1973 104.455 18.5371C105.158 18.877 105.703 19.3428 106.09 19.9346C106.482 20.5264 106.679 21.2031 106.679 21.9648H104.06C104.06 21.5898 103.98 21.2617 103.822 20.9805C103.67 20.6934 103.436 20.4678 103.119 20.3037C102.809 20.1396 102.416 20.0576 101.941 20.0576C101.484 20.0576 101.104 20.1279 100.799 20.2686C100.494 20.4033 100.266 20.5879 100.113 20.8223C99.9609 21.0508 99.8848 21.3086 99.8848 21.5957C99.8848 21.8125 99.9375 22.0088 100.043 22.1846C100.154 22.3604 100.318 22.5244 100.535 22.6768C100.752 22.8291 101.019 22.9727 101.335 23.1074C101.651 23.2422 102.018 23.374 102.434 23.5029C103.131 23.7139 103.743 23.9512 104.271 24.2148C104.804 24.4785 105.249 24.7744 105.606 25.1025C105.964 25.4307 106.233 25.8027 106.415 26.2188C106.597 26.6348 106.688 27.1064 106.688 27.6338C106.688 28.1904 106.579 28.6885 106.362 29.1279C106.146 29.5674 105.832 29.9395 105.422 30.2441C105.012 30.5488 104.522 30.7803 103.954 30.9385C103.386 31.0967 102.75 31.1758 102.047 31.1758C101.414 31.1758 100.79 31.0937 100.175 30.9297C99.5596 30.7598 99 30.5049 98.4961 30.165C97.998 29.8252 97.5996 29.3916 97.3008 28.8643C97.002 28.3369 96.8525 27.7129 96.8525 26.9922H99.498C99.498 27.3906 99.5596 27.7275 99.6826 28.0029C99.8057 28.2783 99.9785 28.501 100.201 28.6709C100.43 28.8408 100.699 28.9639 101.01 29.04C101.326 29.1162 101.672 29.1543 102.047 29.1543C102.504 29.1543 102.879 29.0898 103.172 28.9609C103.471 28.832 103.69 28.6533 103.831 28.4248C103.978 28.1963 104.051 27.9385 104.051 27.6514ZM113.455 28.8555V24.6191C113.455 24.3145 113.405 24.0537 113.306 23.8369C113.206 23.6143 113.051 23.4414 112.84 23.3184C112.635 23.1953 112.368 23.1338 112.04 23.1338C111.759 23.1338 111.516 23.1836 111.311 23.2832C111.105 23.377 110.947 23.5146 110.836 23.6963C110.725 23.8721 110.669 24.0801 110.669 24.3203H108.138C108.138 23.916 108.231 23.5322 108.419 23.1689C108.606 22.8057 108.879 22.4863 109.236 22.2109C109.594 21.9297 110.019 21.71 110.511 21.5518C111.009 21.3936 111.565 21.3145 112.181 21.3145C112.919 21.3145 113.575 21.4375 114.149 21.6836C114.724 21.9297 115.175 22.2988 115.503 22.791C115.837 23.2832 116.004 23.8984 116.004 24.6367V28.7061C116.004 29.2275 116.036 29.6553 116.101 29.9893C116.165 30.3174 116.259 30.6045 116.382 30.8506V31H113.824C113.701 30.7422 113.607 30.4199 113.543 30.0332C113.484 29.6406 113.455 29.248 113.455 28.8555ZM113.789 25.208L113.807 26.6406H112.392C112.058 26.6406 111.768 26.6787 111.521 26.7549C111.275 26.8311 111.073 26.9395 110.915 27.0801C110.757 27.2148 110.64 27.373 110.563 27.5547C110.493 27.7363 110.458 27.9355 110.458 28.1523C110.458 28.3691 110.508 28.5654 110.607 28.7412C110.707 28.9111 110.851 29.0459 111.038 29.1455C111.226 29.2393 111.445 29.2861 111.697 29.2861C112.078 29.2861 112.409 29.21 112.69 29.0576C112.972 28.9053 113.188 28.7178 113.341 28.4951C113.499 28.2725 113.581 28.0615 113.587 27.8623L114.255 28.9346C114.161 29.1748 114.032 29.4238 113.868 29.6816C113.71 29.9395 113.508 30.1826 113.262 30.4111C113.016 30.6338 112.72 30.8184 112.374 30.9648C112.028 31.1055 111.618 31.1758 111.144 31.1758C110.54 31.1758 109.992 31.0557 109.5 30.8154C109.014 30.5693 108.627 30.2324 108.34 29.8047C108.059 29.3711 107.918 28.8789 107.918 28.3281C107.918 27.8301 108.012 27.3877 108.199 27.001C108.387 26.6143 108.662 26.2891 109.025 26.0254C109.395 25.7559 109.854 25.5537 110.405 25.4189C110.956 25.2783 111.595 25.208 112.321 25.208H113.789ZM120.486 23.459V31H117.946V21.4902H120.328L120.486 23.459ZM120.135 25.9111H119.432C119.432 25.249 119.511 24.6396 119.669 24.083C119.833 23.5205 120.07 23.0342 120.381 22.624C120.697 22.208 121.087 21.8857 121.55 21.6572C122.013 21.4287 122.549 21.3145 123.158 21.3145C123.58 21.3145 123.967 21.3789 124.318 21.5078C124.67 21.6309 124.972 21.8271 125.224 22.0967C125.481 22.3604 125.681 22.7061 125.821 23.1338C125.962 23.5557 126.032 24.0625 126.032 24.6543V31H123.501V24.9355C123.501 24.502 123.442 24.168 123.325 23.9336C123.208 23.6992 123.041 23.5352 122.824 23.4414C122.613 23.3477 122.358 23.3008 122.06 23.3008C121.731 23.3008 121.444 23.3682 121.198 23.5029C120.958 23.6377 120.759 23.8252 120.601 24.0654C120.442 24.2998 120.325 24.5752 120.249 24.8916C120.173 25.208 120.135 25.5479 120.135 25.9111ZM125.795 25.6211L124.89 25.7354C124.89 25.1143 124.966 24.5371 125.118 24.0039C125.276 23.4707 125.508 23.002 125.812 22.5977C126.123 22.1934 126.507 21.8799 126.964 21.6572C127.421 21.4287 127.948 21.3145 128.546 21.3145C129.003 21.3145 129.419 21.3818 129.794 21.5166C130.169 21.6455 130.488 21.8535 130.752 22.1406C131.021 22.4219 131.227 22.791 131.367 23.248C131.514 23.7051 131.587 24.2646 131.587 24.9268V31H129.047V24.9268C129.047 24.4873 128.988 24.1533 128.871 23.9248C128.76 23.6904 128.596 23.5293 128.379 23.4414C128.168 23.3477 127.916 23.3008 127.623 23.3008C127.318 23.3008 127.052 23.3623 126.823 23.4854C126.595 23.6025 126.404 23.7666 126.252 23.9775C126.1 24.1885 125.985 24.4346 125.909 24.7158C125.833 24.9912 125.795 25.293 125.795 25.6211ZM136.219 21.4902V31H133.679V21.4902H136.219ZM133.521 19.0117C133.521 18.6426 133.649 18.3379 133.907 18.0977C134.165 17.8574 134.511 17.7373 134.944 17.7373C135.372 17.7373 135.715 17.8574 135.973 18.0977C136.236 18.3379 136.368 18.6426 136.368 19.0117C136.368 19.3809 136.236 19.6855 135.973 19.9258C135.715 20.166 135.372 20.2861 134.944 20.2861C134.511 20.2861 134.165 20.166 133.907 19.9258C133.649 19.6855 133.521 19.3809 133.521 19.0117Z" fill="white"/>
<path fill-rule="evenodd" clip-rule="evenodd" d="M38.5 46.0453C45.4176 41.5986 50 33.8344 50 25C50 16.1656 45.4176 8.4014 38.5 3.95474V46.0453ZM35.6039 47.6463L24.2566 32.9506C20.7874 38.059 16.6665 42.7679 11.9095 45.9307C11.813 45.9949 11.7162 46.0585 11.6191 46.1214C15.4881 48.5776 20.0779 50 25 50C28.7909 50 32.3847 49.1562 35.6039 47.6463ZM9.00189 44.2118C3.50083 39.6259 0 32.7218 0 25C0 11.1929 11.1929 0 25 0C28.6947 0 32.2022 0.80148 35.3581 2.24006C35.2337 2.6379 35.0523 3.2055 34.8149 3.91689C34.3162 5.41109 33.5708 7.53776 32.5874 10.0567C30.6353 15.057 27.7579 21.571 24.0273 27.745L18.9914 21.2231C18.4851 20.5674 17.5431 20.4463 16.8874 20.9526C16.2317 21.4589 16.1106 22.4009 16.6169 23.0566L22.3228 30.4462C18.8623 35.6914 14.8148 40.3965 10.2485 43.4326C9.83699 43.7062 9.42146 43.9662 9.00189 44.2118ZM35.382 11.1477C35.4217 11.046 35.461 10.9448 35.5 10.8444V42.603L25.9887 30.2852C26.158 30.0132 26.3255 29.7407 26.4912 29.4679C30.3922 23.0444 33.3761 16.2857 35.382 11.1477Z" fill="white"/>
</svg>
