<svg width="50" height="50" viewBox="0 0 50 50" fill="none" xmlns="http://www.w3.org/2000/svg">
<path fill-rule="evenodd" clip-rule="evenodd" d="M38.5 46.0453C45.4176 41.5986 50 33.8344 50 25C50 16.1656 45.4176 8.4014 38.5 3.95474V46.0453ZM35.6039 47.6463L24.2566 32.9506C20.7874 38.059 16.6665 42.7679 11.9095 45.9307C11.813 45.9949 11.7162 46.0585 11.6191 46.1214C15.4881 48.5776 20.0779 50 25 50C28.7909 50 32.3847 49.1562 35.6039 47.6463ZM9.00189 44.2118C3.50083 39.6259 0 32.7218 0 25C0 11.1929 11.1929 0 25 0C28.6947 0 32.2022 0.80148 35.3581 2.24006C35.2337 2.6379 35.0523 3.2055 34.8149 3.91689C34.3162 5.41109 33.5708 7.53776 32.5874 10.0567C30.6353 15.057 27.7579 21.571 24.0273 27.745L18.9914 21.2231C18.4851 20.5674 17.5431 20.4463 16.8874 20.9526C16.2317 21.4589 16.1106 22.4009 16.6169 23.0566L22.3228 30.4462C18.8623 35.6914 14.8148 40.3965 10.2485 43.4326C9.83699 43.7062 9.42146 43.9662 9.00189 44.2118ZM35.382 11.1477C35.4217 11.046 35.461 10.9448 35.5 10.8444V42.603L25.9887 30.2852C26.158 30.0132 26.3255 29.7407 26.4912 29.4679C30.3922 23.0444 33.3761 16.2857 35.382 11.1477Z" fill="#4E5FFF"/>
</svg>
