<svg width="50" height="50" viewBox="0 0 50 50" fill="none" xmlns="http://www.w3.org/2000/svg">
<path fill-rule="evenodd" clip-rule="evenodd" d="M38.5 46.0453C45.4176 41.5986 50 33.8345 50 25C50 16.1655 45.4176 8.40137 38.5 3.95471V46.0453ZM35.6039 47.6463L24.2566 32.9506C20.7875 38.059 16.6665 42.7679 11.9095 45.9307C11.813 45.9949 11.7162 46.0584 11.6191 46.1213C15.4882 48.5776 20.0779 50 25 50C28.7909 50 32.3846 49.1562 35.6039 47.6463ZM9.00195 44.2118C3.50085 39.6259 0 32.7218 0 25C0 11.1929 11.1929 0 25 0C28.6947 0 32.2023 0.801453 35.3582 2.24005C35.3234 2.35144 35.2839 2.4762 35.2402 2.61359C35.1277 2.96698 34.9858 3.40466 34.8149 3.91687C34.3162 5.41107 33.5708 7.53778 32.5874 10.0567C30.6353 15.057 27.7578 21.571 24.0273 27.7451L18.9915 21.2231C18.4851 20.5674 17.5431 20.4463 16.8875 20.9526C16.2317 21.4589 16.1106 22.4009 16.6169 23.0566L22.3229 30.4462C18.8623 35.6915 14.8147 40.3965 10.2485 43.4326C9.83704 43.7062 9.42151 43.9662 9.00195 44.2118ZM35.382 11.1477C35.4218 11.046 35.4611 10.9448 35.5 10.8444V42.603L25.9888 30.2852C26.1049 30.0986 26.2201 29.9118 26.3345 29.7249L26.4912 29.4679C30.3922 23.0444 33.3761 16.2857 35.382 11.1477Z" fill="black"/>
</svg>
